<svg id="Réteg_1" data-name="Réteg 1" xmlns="http://www.w3.org/2000/svg" viewBox="0 0 530.08 311.17"><defs><style>.cls-1{fill:#FFFFFF;}.cls-2{fill:#FFFFFF;}.cls-3{fill:#FFFFFF;}.cls-4{fill:#FFFFFF;}.cls-5{fill:#FFFFFF;}.cls-6{fill:#FFFFFF00;}.cls-7{fill:#FFFFFF00;}.cls-8{fill:#FFFFFF00;}.cls-9{fill:#FFFFFF00;}</style></defs><path class="cls-1" d="M371,569.76,365,571l-4,.88-46,0a7.81,7.81,0,0,0-2.59-.69c-3.8.36-7.71-1-11.41.74-12.36-.26-24.68.35-37,1.22h-8a14.75,14.75,0,0,1-10.34-4c-2.85-2.47-3.53-5.76-3.8-9.14a6.07,6.07,0,0,1,2.54-5.56c1.7-1.26,3-3,4.78-4.19,5.41-3.69,6.75-9.38,7.75-15.24,1.45-8.5,1.71-17.09,2.29-25.68,1-14.07,2-28.11,1.55-42.22-.19-5.26-1-10.5-1.47-15.75a24.27,24.27,0,0,1-.26-4c.24-3-1.32-4.93-3.45-6.58-1.7-1.32-3.34-3-5.29-3.63-3.67-1.18-5.39-3.26-5.54-7.12a9.28,9.28,0,0,1,5.3-9.25,22.45,22.45,0,0,1,10.86-2.85c7.83,0,15.67.17,23.48-.14,5.23-.21,10.43-1.15,15.65-1.71,10.85-1.17,21.69-3.07,32.63-2.09,8.82.79,17.76,1.39,26.13,4.89,7.64,3.21,14.23,7.83,18.47,15,5.93,10.1,8.1,20.83,3.74,32.22a25.61,25.61,0,0,1-5.71,8.91c-.94.95-1.82,1.95-2.7,2.94-2.18,2.45-2.18,3.46.36,5.59a35.53,35.53,0,0,0,4.07,2.59L387.79,493l3.25,2.78,3.08,3.09,2.81,3.14,0,0a3,3,0,0,0,2,3.06l0,0a5.26,5.26,0,0,0,.28,1.95c3.23,5.59,4.15,11.66,3.9,18-.1,2.65-.1,5.3-.15,8l-.85,3c-1,2.27-1.9,4.59-3,6.81-2.8,5.63-6,11-10.79,15.22-2,1.74-3.66,3.83-5.47,5.76l.23.12-.22-.16Zm-29.51-43.53c-.92-5-1.82-10-2.78-14.94a6.14,6.14,0,0,0-.77-1.81c-3.6-6.26-8.45-10.43-16.24-9.66-.66.07-1.33,0-2,0-6.57.36-7.63,2.82-7.22,8.33.73,9.86-.21,19.86,2.49,29.63a10.4,10.4,0,0,0,4.83,6.72c4.49,2.49,14.87-.25,18.24-4.37a3.18,3.18,0,0,0,.79-1.25C339.65,534.73,342.12,530.84,341.44,526.23ZM311,455.12h.07c0,5-.16,10,0,15,.19,4.53,3.44,7.13,7.91,6.73,7.12-.63,13.2-6,13.81-13,.58-6.59.52-13.2-1.82-19.61s-7-9.69-13.86-9.26c-4,.24-6,2.11-6.12,6.23C310.85,445.81,311,450.47,311,455.12Z" transform="translate(-36.94 -268.86)"/><path class="cls-1" d="M95.36,546.65c1.7.78,3.66,1.54,5.5,2.55,2,1.09,4.25,2.07,5.75,3.7,3.16,3.43,2.66,8.52-.71,12.49a17.28,17.28,0,0,1-8.2,5.37,67,67,0,0,1-19.41,3c-9.11.06-18.24-.39-27.35-.89a21.5,21.5,0,0,1-8.09-1.9c-4-1.93-6-5.39-5.9-10s2.26-7.75,6.25-9.85a89.51,89.51,0,0,0,8.92-4.92A42.5,42.5,0,0,0,62.94,535c6.44-9.16,11.79-19,17.6-28.58,6-9.94,12.2-19.81,18-29.88A244.49,244.49,0,0,0,110.36,454a53.59,53.59,0,0,0,4.75-19c.59-11,7.41-16.61,17.31-19.06,8.27-2,16.35-.48,23.78,3.82a34.46,34.46,0,0,1,12.25,11.15c3.75,5.93,8.63,11.21,10.73,18.12,6.2,8.85,10,19,14.74,28.55,3.53,7.14,6.38,14.67,9.48,22,3.18,7.54,6.68,15,10.31,22.38,2.3,4.68,4.59,9.37,6.81,14.09.62,1.32.78,2.87,1.46,4.16a15,15,0,0,0,10,8.11c5.32,1.26,7.4,5,7.78,10,.34,4.45-2.07,7.56-5.57,9.73a28.63,28.63,0,0,1-11.12,3.9c-18.84,2.73-37.76,2.16-56.66,1.57-5.65-.17-11.5-.88-16.69-3.76a12.18,12.18,0,0,1-6.36-10.93c-.08-3.17,2.11-5.74,5-7.27,1.89-1,3.91-1.74,5.81-2.72a7.9,7.9,0,0,0,2.7-2c3.12-4.15,1.74-8.69-3.21-11.2-3.79-1.92-8-2.33-12-2.67a308.18,308.18,0,0,0-33.84-1.16C99.62,532.15,94.65,537.73,95.36,546.65Zm19.61-45a25.76,25.76,0,0,0,4.65,1.31q7.18.63,14.38.89c3.66.14,7.33.12,11,0,2.27-.07,4.18-2,3.73-3.67a42,42,0,0,0-2.48-7.29c-2.29-4.81-4.69-9.58-7.32-14.21-1.56-2.74-3.1-5.87-7-5.94s-5.34,2.91-6.82,5.6c-3,5.57-5.69,11.38-8.9,16.85C115,497.26,115,499.14,115,501.64Z" transform="translate(-36.94 -268.86)"/><path class="cls-1" d="M562,549.9c-1.64,3.65-3.2,7.35-4.94,11-1.67,3.44-4.55,5.25-8.24,6.34-5.65,1.66-11.49,3.19-16.64,5.92-4.22,2.25-8.6,3.51-13,4.9a53.13,53.13,0,0,1-17.7,2c-2.83-.08-5.66,0-8.49,0l-2-.22-2-.52-4-.46c-1.91-.93-3.73-2.19-6-1.59l-2-.3-2-.66-2-.43c-.08-.15-.12-.39-.24-.43-12.13-4.64-24.21-9.33-34.17-18.09a14.71,14.71,0,0,0-3.49-1.71.91.91,0,0,0-.22-.72l-.87-1,0,0-2.89-2.16-.15.2.19-.17L429,548.91h0c.08-1.37-.67-2-1.94-2.07l0,0c.11-1.4-.68-2-1.94-2.27a.79.79,0,0,0-.26-.68,2.38,2.38,0,0,0-1.93-2.74l-1.59-1.4c-1-2.2-1.88-4.41-2.92-6.56-.14-.28-.9-.26-1.37-.39l0,0c-.73-3-1.75-5.79-4.09-7.92l0,0-1-2c-.32-.67-.63-1.35-.94-2,1-2.57-1.56-4-2.07-6.1-1.12-4.69-2.64-9.28-4-13.91l-.12-2q0-8,0-16c.84-12.28,5.57-23.09,12.63-33,6.05-8.47,13.8-14.91,22.78-20.23a86.56,86.56,0,0,1,27.77-10.62c13.87-2.69,27.61-1.67,40.78,4a101.7,101.7,0,0,0,10.52,4.16c2.15.66,4.55.54,6.84.67,3.14.16,6.35-.14,9.41.4,5.32.94,8.25,5.38,11.33,9.15,5.7,7,8.82,15.29,10.83,24a28.61,28.61,0,0,1-.6,15.21c-1.58,5-7.13,8.81-12.75,9.47-9.26,1.1-16-2.51-20.83-10.26-2.84-4.54-5.23-9.55-8.87-13.33-7-7.22-14.77-13.41-25.36-14.71-6.91-.84-13.44-.32-19.37,3.66a18.74,18.74,0,0,0-8.66,14.16,61.3,61.3,0,0,0,5.95,32.28c0,.8-.3,1.87.1,2.34a20.6,20.6,0,0,1,4.42,8.28c.06.23.88.25,1.34.37h0c.09.49,0,1.09.29,1.44,4.2,5.71,8,11.65,14.21,15.71,5.23,3.42,10.25,6.88,16.35,8.73,12.16,3.67,23.76,2.32,34.87-3.44a33.63,33.63,0,0,0,7.68-6c1.55-1.51,3.4-2.56,5.13-2.11,2.59.66,5.51,1.28,7.19,3.84,2.77,4.2,4.86,8.61,4.27,13.88a43.53,43.53,0,0,0,0,5C562.66,547.22,562.34,548.56,562,549.9Z" transform="translate(-36.94 -268.86)"/><path class="cls-2" d="M338.76,271.53c1.34,5-4.21,8.13-2.53,13.17,3.13,1.12,4.86-1.43,5.89-3.46s.83-4.74,1.26-7.8a9.38,9.38,0,0,1,7.47-2.6c3,.14,6,0,9,.15a15.3,15.3,0,0,1,4.76,1.11c1.13.46,2.33,1,2.42,2.77s-1.12,2.68-2.28,3.55a3.48,3.48,0,0,1-1.88.5c-4.44.1-7.66,2.34-10.48,5.58-2.51,2.89-2.89,4.79-.42,7.68,4.78,5.59,9.68,11.09,14.64,16.52,1.28,1.4,3.12,2.29,4.44,3.67a16,16,0,0,1,2,3.6c-2.4,2.15-4.85,3.14-8.09,2.42A30.37,30.37,0,0,0,358,318c-4.51.08-8.14-1.2-11-5.07a76.41,76.41,0,0,0-8-8.58,2.38,2.38,0,0,0-2.17-.45c-.52.26-.77,1.29-.92,2-.38,1.77.53,3.16,1.53,4.5,1.44,1.95,1.44,1.95,1.44,5-4.32,3.1-9.32,2.5-14.24,2.25-1.95-.1-3.89-.52-5.84-.76a7.13,7.13,0,0,1-5.09-2.71c-.79-1-1-2.23.11-3.12,4.91-4,4.17-9.92,5-15.2.56-3.58.07-7.32.2-11a11.88,11.88,0,0,0-3.06-8,4.21,4.21,0,0,1,1.83-6.81C322.86,268,333.38,268.7,338.76,271.53Z" transform="translate(-36.94 -268.86)"/><path class="cls-2" d="M399.82,309.14c-2.51,4-3.84,7.48-1.52,11.52a7.08,7.08,0,0,1,.8,2.79c.18,2.2-.57,3.19-2.66,3.4a10.29,10.29,0,0,1-4-.18c-4.86-1.52-9.68-3.18-14.47-4.89a7.53,7.53,0,0,1-2.86-1.84c-1.87-2-1.57-3.73.92-5.08,2.92-1.59,4.33-3.84,5.18-7.15,1.55-6.06,3.36-12,3.89-18.29.19-2.28.11-4.37-1.48-6.53-2-2.77-.44-5.14,3.15-5.07a23.13,23.13,0,0,1,5.31.94c7.6,2,15.26,3.87,22.76,6.2,5.12,1.59,9.4,4.52,11.24,10s.46,9.46-4.75,12.33c-.83.46-1.63,1-2.35,1.38,0,.56-.14,1.05,0,1.18,4.56,3.8,5.77,8.94,5.77,14.51,0,2,.82,3.27,1.87,4.85,2.31,3.48.24,6-3.07,5.9a25.34,25.34,0,0,1-14.27-4.6c-3.2-2.33-4.59-5.95-4.37-10,.18-3.16.21-6.35-2-8.93A21.62,21.62,0,0,0,399.82,309.14Zm3.8-18.25c-2.62,5.47-2.64,5.56-2.31,9.67a3.88,3.88,0,0,0,5.66-.21,6.46,6.46,0,0,0,1.84-6.34C408.16,291.84,406.52,290.48,403.62,290.89Z" transform="translate(-36.94 -268.86)"/><path class="cls-3" d="M118.77,366.84c.08-1.19-.23-3,.41-4.39,1.13-2.44.38-4.89-.43-6.71-2.15-4.86-3.62-10-6.83-14.44-2.28-3.14-4.49-5.94-8.6-6.86-2.46-.55-3-2-2.36-4.05a3.53,3.53,0,0,1,1.45-1.75c5.24-3.36,10.73-5.72,17.14-3.83,5.19,1.52,10.3,3.32,15.55,4.56,3.61.86,7.24,2.43,11.6,1.22,0-1,.42-2.36-.08-3.09a38.68,38.68,0,0,0-4.82-5.5c-.64-.63-1.82-.69-2.71-1.09-2.71-1.22-3-3-.76-5.23a24.72,24.72,0,0,1,4.56-3.61,31,31,0,0,1,5.38-2.34,11.39,11.39,0,0,1,3.79-.81c2.28,0,3,.76,3.16,2.94a4.91,4.91,0,0,1-.17,2.46c-1.87,3.58-.38,6.76,1.11,9.87,3,6.18,5.94,12.36,9.15,18.4a13,13,0,0,1,1.63,8.56c-1.82,2-4.06,1.94-6.4,1.39l-26.39-6.14c-1.92-.45-4.09-1.32-5.61.37-1.67,1.87.22,3.86.91,5.51,1,2.37,2.11,5,5.5,5.28a3.32,3.32,0,0,1,3.26,3.2,4.24,4.24,0,0,1-2.54,4.34c-5.17,2.78-10.27,5.36-16.27,2.59C119.27,367.63,119.2,367.43,118.77,366.84Z" transform="translate(-36.94 -268.86)"/><path class="cls-2" d="M197.09,336c-1.07,3.15-2.85,4.91-5.32,5.61a51.27,51.27,0,0,1-10.56,2.25c-4.22.26-5.36-2.3-3.09-6,1.72-2.8,1.23-5.92.49-8.64-1.48-5.35-3.76-10.48-5.51-15.76-.84-2.53-2.13-4.31-4.82-4.93a5.83,5.83,0,0,1-1.78-.89c-2-1.28-2.29-3.42-.22-4.7,5.76-3.58,11.54-6.92,18.82-3.43,6.5,3.12,13.28,5.69,20,8.41,1,.39,2.86.66,3.06.28a4.88,4.88,0,0,0,.54-3.64,19.07,19.07,0,0,0-3-4.45,8.76,8.76,0,0,0-1.62-1.12c-1.29-1-3.13-1.71-3-3.62s1.8-3.07,3.63-3.57c3.48-1,7-1.93,10.51-2.67a4.55,4.55,0,0,1,4.58,1.26c1.36,1.48,1.84,2.94.37,4.31-2.35,2.19-1.83,4.39-1.44,7.16.9,6.45,3.57,12.25,5.65,18.28a62.9,62.9,0,0,1,2,8.64c.43,2.28-.73,3.95-2.91,4.08a10,10,0,0,1-3.85-.63c-8.43-2.95-16.46-6.9-24.73-10.26a15,15,0,0,0-1.78-.83c-3.89-1-5.24.29-4.25,4.19a31.22,31.22,0,0,0,1.58,4.6c.63,1.52,1.32,2.82,3.34,3.25C195,333.39,195.9,334.9,197.09,336Z" transform="translate(-36.94 -268.86)"/><path class="cls-2" d="M56.77,400.74c5.51-5.42,4.39-11.89,3.64-18.26-.35-3-1.12-5.86-1.28-8.81a20.91,20.91,0,0,0-3-10.34,8.31,8.31,0,0,1,5.23-12.73,17.48,17.48,0,0,1,9.22,0c7.19,2,13.69,5.4,20.32,8.64,4.19,2,8,4.78,12.36,6.55,2.78,1.12,5.33,2.44,8.49,2.17a3.87,3.87,0,0,1,3.1,1.78,3.29,3.29,0,0,1-1,4c-2.49,1.89-4.75,4.15-7.41,5.78-3.34,2.06-7,3.65-10.48,5.44-.59.3-1.19.85-1.77.84-1.78,0-3.75.14-5.28-.56-2-.91-.59-2.93-.58-4.49a6.11,6.11,0,0,0-.18-1c-1.21-1.38-2.76-1.09-4-.35-3.57,2.07-7.09,4.26-10.5,6.6a3.58,3.58,0,0,0-1.43,2.85c.14.77,1.57,1.32,2.47,1.91.26.17.65.12,1,.22,2.83.89,3.55,3,1.52,5.12a17.74,17.74,0,0,1-4.58,3.51c-2.77,1.44-5.72,2.52-8.6,3.74S58.79,403.85,56.77,400.74Zm21-28c-3.9-4.55-4.75-4.9-9.58-4.22a57.23,57.23,0,0,0,0,6.28c.2,1.86,1.52,2.75,3.19,2A56.31,56.31,0,0,0,77.8,372.72Z" transform="translate(-36.94 -268.86)"/><path class="cls-2" d="M539.46,352.31c-4-4.42-7.83-5.39-12.45-3a6.72,6.72,0,0,1-7.75-.81c-1.29-4.1.48-6.48,3.87-8.52,5.41-3.25,7.31-3.47,12.46.09,5.44,3.76,11.53,6.19,17.53,8.82,3.31,1.45,6.59,2.94,9.84,4.51a11.19,11.19,0,0,1,2.77,2c1.79,1.75,1.72,3-.16,4.55a10.12,10.12,0,0,1-2.12,1.23Q551,367.1,538.49,373c-.88.42-1.73.92-2.57,1.41-4,2.31-4,3.62.06,5.87a11.88,11.88,0,0,0,11,.71c2.73-1.24,5.3-1.28,7.82.45.83,6.68-.75,9-6.76,11.66-3,1.33-5.54.52-8-.82q-15.74-8.66-31.33-17.56c-2-1.15-4.46-2.14-4.67-5.71,2.2-1.18,4.47-2.89,7-3.69,6.47-2,12.36-5.23,18.42-8.08C532.71,355.74,535.85,354.1,539.46,352.31Z" transform="translate(-36.94 -268.86)"/><path class="cls-4" d="M512.14,332.85c.08,1.13.1,2.27.23,3.4.55,4.73-1.56,6.41-6.13,4.85-.61-.21-1.27-.29-1.9-.44l-.14,0q-1.53-2.44-3-4.89a3.09,3.09,0,0,0-2.13-3c-.28-2.47-2.43-2.3-4-2.89-1.11-1.7-2.41-.83-3.68-.41-.11,2.76-.11,2.76,1.62,4.45l0,0c0,1.34.82,1.9,2,2,1.72,2,3.4,3.95,5.9,5l2,2c.9,1.74,1.9,3.43,2.69,5.22,3.53,8-1.48,16-10.15,16.78s-16.57-1.95-23.94-6.32c-1.85-1.09-3.51-2.49-5.3-3.66-6.22-4.07-5.74-10.56-3-15.63,1.39-2.58,4.78-2.27,6.22.47a19.94,19.94,0,0,1,1.61,4.11c1.43,5.35,5.28,8.16,10.26,9.59a4,4,0,0,0,3.38-1.19c.85-1.08.17-2.32-1-3.35-3.25-2.77-6.31-5.74-9.46-8.62-2.7-2.46-3.61-5.83-4.2-9.15-.87-4.92,1.88-9.19,6.51-11.45,5.45-2.66,10.91-2.21,16.36-.29A33.16,33.16,0,0,1,500.3,323a43.28,43.28,0,0,0,7.63,4.44c1.34.55,2.21,2.25,3.29,3.43C511.53,331.53,511.84,332.19,512.14,332.85Z" transform="translate(-36.94 -268.86)"/><path class="cls-2" d="M262.62,314.21c-5.15-1-9.92.33-14.53,2.74-1.51.79-1.19,1.78-.36,2.78.29.35.87.45,1.27.72,2.69,1.82,2.87,3.84.26,5.67A21.29,21.29,0,0,1,238.69,330a20.66,20.66,0,0,1-5,0c-1-.15-1.85-1.05-3.09-1.81a29.39,29.39,0,0,1,2.88-3.19,9.89,9.89,0,0,0,3.57-5.45c1.74-6.48,4-12.83,5.56-19.36a28.59,28.59,0,0,0,.26-9.42c-.44-4.29.71-7.45,4.83-9.17s7.83-.59,11.37,2.11a82.2,82.2,0,0,1,16.29,17.13,81.57,81.57,0,0,0,6.41,7.39c1.2,1.29,2.33,2.62,4.42,2.9a3,3,0,0,1,2.85,2.93c0,1.85-1.13,2.65-2.42,3.45-4.14,2.56-8.92,3.18-13.51,4.39a16.5,16.5,0,0,1-4.37.76,17.46,17.46,0,0,1-5.77-.84c-2.36-.89-2.43-1.82-1.09-4.24a14.67,14.67,0,0,0,1-2.15C263,315.16,262.79,314.8,262.62,314.21Zm-11.78-15.16c-2,2.45-1.94,5-1.72,7.52,4.65.37,4.65.37,8-1.81C256.38,301.53,253.94,300.13,250.84,299.05Z" transform="translate(-36.94 -268.86)"/><path class="cls-2" d="M466.5,313.6a14.54,14.54,0,0,0-3.34,1.35c-1.45,1-3.31,2.1-3.85,3.58-2.21,6-4.08,12.14-5.86,18.29a5.43,5.43,0,0,0,.39,4.18c1.51,2,1.27,4,1,6.67a17.5,17.5,0,0,1-3.95.48c-7-.69-13-4-18.64-7.85-3-2.05-2.78-5,.45-6.32a6.88,6.88,0,0,0,3.93-4.21c2.12-5.68,4.31-11.34,6-17.15.76-2.56,1.26-5.52-1-8-.58-.64-.52-1.85-.74-2.77,1.84-2,3.76-2,6.28-1.54a43.67,43.67,0,0,1,17.49,7.57C466.62,309.29,467.74,310.81,466.5,313.6Z" transform="translate(-36.94 -268.86)"/><path class="cls-5" d="M291.66,307c-3-6.87.1-12.4,7.09-13.25,1.63-.2,3.22-.72,4.85-.87s3.25,0,5,0c1.65,4.35,0,8-2.2,11.78Z" transform="translate(-36.94 -268.86)"/><path class="cls-6" d="M502.84,342.94l-2-2,3.35-.25.14,0Z" transform="translate(-36.94 -268.86)"/><path class="cls-6" d="M512.14,332.85c-.3-.66-.61-1.32-.92-2C513.41,331.36,513.42,331.39,512.14,332.85Z" transform="translate(-36.94 -268.86)"/><path class="cls-7" d="M341.44,526.23c.68,4.61-1.79,8.5-2.66,12.66a3.18,3.18,0,0,1-.79,1.25c-3.37,4.12-13.75,6.86-18.24,4.37a10.4,10.4,0,0,1-4.83-6.72c-2.7-9.77-1.76-19.77-2.49-29.63-.41-5.51.65-8,7.22-8.33.67,0,1.34.06,2,0,7.79-.77,12.64,3.4,16.24,9.66a6.14,6.14,0,0,1,.77,1.81C339.62,516.26,340.52,521.25,341.44,526.23Z" transform="translate(-36.94 -268.86)"/><path class="cls-8" d="M403.62,290.89c2.9-.41,4.54.95,5.19,3.12a6.46,6.46,0,0,1-1.84,6.34,3.88,3.88,0,0,1-5.66.21C401,296.45,401,296.36,403.62,290.89Z" transform="translate(-36.94 -268.86)"/><path class="cls-8" d="M77.8,372.72a56.31,56.31,0,0,1-6.34,4c-1.67.79-3-.1-3.19-2a57.23,57.23,0,0,1,0-6.28C73.05,367.82,73.9,368.17,77.8,372.72Z" transform="translate(-36.94 -268.86)"/><path class="cls-6" d="M495,329.94c-1.27,1.05-2.59,2.07-2.06,4-1.73-1.69-1.73-1.69-1.62-4.45C492.58,329.11,493.88,328.24,495,329.94Z" transform="translate(-36.94 -268.86)"/><path class="cls-6" d="M501.16,335.82c-2.71.43-2.11-1.5-2.13-3A3.09,3.09,0,0,1,501.16,335.82Z" transform="translate(-36.94 -268.86)"/><path class="cls-6" d="M492.91,334c1.64-.29,2.29.42,2,2C493.73,335.86,492.93,335.3,492.91,334Z" transform="translate(-36.94 -268.86)"/><path class="cls-9" d="M250.84,299.05c3.1,1.08,5.54,2.48,6.25,5.71-3.32,2.18-3.32,2.18-8,1.81C248.9,304,248.82,301.5,250.84,299.05Z" transform="translate(-36.94 -268.86)"/></svg>
