<?xml version="1.0" standalone="no"?>
<!DOCTYPE svg PUBLIC "-//W3C//DTD SVG 20010904//EN"
 "http://www.w3.org/TR/2001/REC-SVG-20010904/DTD/svg10.dtd">
<svg version="1.0" xmlns="http://www.w3.org/2000/svg"
 width="1034.000000pt" height="1034.000000pt" viewBox="0 0 1034.000000 1034.000000"
 preserveAspectRatio="xMidYMid meet">

<g transform="translate(0.000000,1034.000000) scale(0.100000,-0.100000)"
fill="#000000" stroke="none">
<path d="M0 5170 l0 -5170 5170 0 5170 0 0 5170 0 5170 -5170 0 -5170 0 0
-5170z m4898 3120 c290 -82 482 -316 531 -647 28 -184 -2 -382 -90 -601 -16
-41 -29 -78 -29 -83 0 -5 26 -9 58 -9 76 0 173 -16 249 -41 79 -26 143 -82
180 -157 26 -53 28 -65 28 -182 -1 -124 -1 -126 -52 -275 -103 -299 -108 -471
-25 -845 42 -188 46 -230 29 -271 -27 -65 -77 -88 -126 -58 -37 22 -46 61 -37
162 3 39 9 161 12 269 8 229 -6 314 -57 369 -77 83 -97 -31 -59 -337 33 -262
25 -358 -31 -398 -29 -20 -83 -21 -99 -1 -17 20 -9 138 19 295 16 87 22 149
19 206 -4 74 -7 85 -37 123 -78 98 -133 55 -286 -222 -140 -255 -191 -318
-350 -437 -162 -120 -319 -190 -513 -229 -446 -90 -951 49 -1211 335 -73 80
-101 141 -101 224 0 86 29 147 106 225 165 167 544 288 652 208 38 -28 51 -74
51 -184 1 -57 7 -117 17 -150 24 -79 82 -189 100 -189 26 0 152 46 269 98
l110 49 11 64 c17 95 16 217 -2 280 -9 30 -31 82 -50 117 -18 34 -29 62 -23
62 22 0 98 -46 159 -97 146 -121 203 -122 286 -6 53 74 133 132 193 140 23 3
41 2 41 -3 0 -5 -18 -25 -41 -44 l-40 -35 0 -73 c0 -40 4 -80 9 -89 9 -15 14
-12 45 21 52 55 70 100 75 192 7 126 -36 241 -148 395 -62 86 -80 121 -80 160
0 95 145 193 405 274 55 17 108 35 118 41 20 12 55 120 89 279 25 118 30 353
9 450 -78 360 -341 575 -700 575 -113 0 -195 -21 -310 -76 -106 -52 -171 -109
-220 -195 -125 -218 -4 -399 269 -403 123 -1 145 8 198 89 41 63 51 69 101 65
71 -6 171 -84 171 -134 0 -31 -34 -72 -79 -95 -128 -66 -513 -46 -672 35 -58
29 -138 104 -165 155 -13 24 -19 55 -19 109 1 94 30 156 118 248 128 133 313
225 539 268 102 19 291 12 386 -16z m1697 -1511 c80 -38 131 -107 160 -215 2
-6 17 -14 33 -17 40 -8 88 -51 101 -90 6 -18 12 -58 12 -90 1 -44 7 -62 24
-82 13 -13 26 -37 30 -54 8 -39 21 -49 91 -66 74 -19 187 -74 237 -115 148
-124 168 -355 48 -545 -86 -134 -219 -216 -406 -252 -60 -11 -93 -24 -136 -54
-64 -43 -177 -91 -257 -108 -75 -16 -228 -14 -297 4 -128 34 -244 128 -303
245 -58 117 -76 232 -76 490 0 172 4 247 18 320 9 52 23 132 30 177 7 45 21
93 30 107 9 14 16 40 16 58 0 76 70 172 147 205 38 15 101 17 138 3 24 -9 32
-6 63 21 88 77 207 100 297 58z m404 -2583 c28 -26 41 -92 30 -150 -20 -109
-84 -189 -177 -222 -49 -18 -50 -18 -56 -68 -3 -28 -6 -67 -6 -86 l0 -35 26
50 c52 98 109 145 176 145 66 0 100 -79 63 -149 -18 -35 -68 -79 -100 -87
l-23 -6 34 -50 c19 -27 34 -54 34 -59 0 -5 13 -37 30 -73 31 -68 54 -85 90
-66 41 22 100 175 100 260 0 60 47 157 92 190 22 16 46 24 72 24 32 1 44 -6
71 -37 l33 -38 7 28 c10 40 24 53 55 53 47 0 51 -15 49 -182 -3 -166 4 -198
44 -198 44 0 90 64 117 163 14 53 36 65 27 15 -10 -65 -50 -150 -86 -189 -33
-33 -44 -39 -80 -39 -56 0 -95 40 -118 121 l-16 59 -23 -55 c-36 -90 -70 -125
-124 -124 -37 0 -69 21 -89 58 -15 28 -21 22 -50 -49 -35 -88 -81 -130 -140
-130 -75 0 -145 100 -175 250 -17 84 -24 65 62 170 53 65 55 90 8 90 -19 0
-45 -9 -60 -21 -45 -36 -102 -170 -127 -297 -12 -64 -30 -85 -51 -64 -7 7 -16
47 -22 91 l-11 80 -62 -41 -62 -41 6 -57 c10 -101 -36 -183 -122 -216 -80 -30
-145 -1 -145 66 0 49 45 106 127 161 l24 16 -53 66 c-29 36 -56 66 -60 67 -4
0 -17 -21 -29 -46 -32 -63 -86 -124 -126 -140 -71 -30 -143 -6 -179 61 -10 19
-21 35 -24 35 -3 0 -14 -16 -25 -36 -28 -52 -66 -76 -116 -72 -53 4 -92 48
-113 128 -11 42 -16 50 -21 35 -36 -108 -84 -165 -136 -165 -42 0 -63 14 -90
56 l-22 37 -25 -49 c-57 -115 -109 -164 -173 -164 -45 0 -82 35 -99 95 -10 34
-11 76 -5 158 14 192 12 238 -7 251 -43 27 -125 -93 -159 -232 -11 -42 -26
-86 -34 -99 -16 -25 -49 -31 -61 -11 -14 22 -6 153 16 275 25 139 20 173 -20
132 -44 -46 -105 -196 -162 -399 -10 -34 -18 -45 -33 -45 -16 0 -21 8 -23 40
-5 68 -11 73 -37 28 -31 -52 -64 -73 -114 -73 -32 0 -44 6 -69 34 -16 19 -36
57 -43 85 -7 28 -15 51 -19 51 -3 0 -14 -23 -24 -52 -10 -29 -33 -67 -51 -85
-59 -59 -134 -38 -171 47 l-18 40 -26 -58 c-40 -90 -57 -118 -90 -151 -54 -54
-121 -38 -159 38 -19 36 -51 170 -51 211 0 26 1 26 -73 -24 l-58 -40 6 -49
c20 -139 -98 -263 -216 -228 -92 28 -63 135 59 220 17 12 32 27 32 32 0 6 -23
37 -52 70 l-52 59 -21 -54 c-43 -115 -108 -168 -175 -144 -34 11 -77 70 -87
118 -8 45 -18 44 -38 -1 -25 -54 -58 -79 -108 -79 -34 0 -46 6 -79 41 -33 34
-39 37 -44 22 -12 -36 -65 -139 -82 -158 -44 -52 -102 -69 -154 -44 -87 40
-144 262 -120 466 6 54 18 125 27 157 40 151 123 279 191 292 68 13 104 -28
104 -117 0 -90 -65 -186 -156 -229 l-42 -19 -7 -117 c-20 -311 19 -449 110
-390 61 40 125 203 125 320 1 97 26 156 69 156 47 0 53 -22 45 -168 -5 -105
-3 -130 9 -147 43 -57 137 70 137 186 0 111 50 179 100 134 18 -16 19 -28 13
-176 -6 -145 -4 -161 12 -179 26 -29 52 -25 86 13 35 38 71 145 63 187 -8 37
27 112 62 135 59 38 146 -8 130 -69 -3 -14 -11 -26 -17 -26 -7 0 -9 10 -5 26
13 52 -45 74 -84 32 -39 -43 -19 -99 56 -157 24 -18 52 -47 61 -62 10 -16 21
-29 26 -29 16 0 118 73 132 94 15 25 29 342 15 351 -5 3 -31 8 -58 12 -56 6
-107 -14 -117 -47 -9 -27 -55 -28 -55 0 0 27 37 59 78 66 19 4 64 4 101 0 l67
-6 12 76 c14 88 23 104 62 104 46 0 54 -20 47 -126 -7 -95 -7 -95 19 -104 33
-13 100 -13 124 0 10 5 23 23 28 40 7 20 18 30 31 30 51 0 35 -51 -25 -81 -38
-18 -57 -21 -114 -17 -63 5 -69 4 -74 -16 -10 -35 -19 -407 -12 -467 14 -112
51 -115 119 -11 53 82 81 148 97 227 18 89 66 156 126 175 42 14 99 -8 116
-44 14 -33 28 -33 28 -2 0 29 44 67 68 59 38 -13 41 -31 36 -182 -6 -154 2
-192 39 -199 52 -10 117 93 117 185 0 125 40 204 92 184 31 -12 40 -33 32 -80
-5 -29 1 -22 30 37 41 85 75 122 110 122 34 0 55 -42 70 -139 l12 -76 36 55
c77 116 169 122 215 13 10 -25 14 -65 12 -137 -6 -272 -6 -271 20 -274 55 -8
142 135 154 256 20 192 166 296 249 179 l21 -30 11 33 c15 46 44 63 76 47 l25
-13 0 -165 c0 -177 5 -199 49 -199 44 0 89 72 101 160 18 137 119 241 203 209
44 -17 52 -42 27 -75 -15 -18 -15 -18 -13 11 2 24 -1 31 -17 33 -25 4 -58 -31
-74 -78 -19 -56 -24 -191 -9 -220 17 -31 51 -49 84 -42 60 11 132 129 143 235
8 70 22 97 62 121 69 41 149 -9 123 -78 -10 -27 -24 -18 -22 15 3 37 -18 55
-54 46 -26 -7 -48 -43 -48 -79 0 -12 33 -53 86 -105 l86 -84 54 35 c29 20 60
46 68 58 9 15 16 67 19 153 10 215 61 368 147 433 39 30 50 34 92 30 27 -3 57
-13 67 -22z m361 -1316 c0 -7 -737 -10 -2190 -10 -1453 0 -2190 3 -2190 10 0
7 737 10 2190 10 1453 0 2190 -3 2190 -10z m-3987 -291 c32 -17 37 -28 37 -84
0 -63 -20 -95 -61 -95 -29 0 -29 0 -29 -60 0 -57 -1 -60 -25 -60 l-25 0 0 155
0 155 41 0 c22 0 50 -5 62 -11z m307 -144 c0 -148 -1 -155 -20 -155 -19 0 -20
7 -20 155 0 148 1 155 20 155 19 0 20 -7 20 -155z m370 130 c0 -14 -18 -68
-40 -121 -22 -53 -40 -103 -40 -110 0 -10 13 -14 40 -14 34 0 40 -3 40 -20 0
-19 -5 -21 -67 -18 -66 3 -68 4 -65 28 2 14 21 69 43 122 21 53 39 102 39 107
0 6 -18 11 -40 11 -33 0 -40 3 -40 20 0 18 7 20 65 20 63 0 65 -1 65 -25z
m370 8 c0 -10 -21 -67 -45 -127 -25 -61 -45 -113 -45 -118 0 -4 20 -8 45 -8
38 0 45 -3 45 -20 0 -18 -7 -20 -70 -20 -67 0 -70 1 -70 24 0 13 20 71 44 130
24 58 41 108 38 111 -3 3 -23 5 -44 5 -31 0 -38 3 -38 20 0 18 7 20 70 20 60
0 70 -2 70 -17z m334 0 c6 -20 46 -268 46 -284 0 -6 -10 -9 -22 -7 -17 2 -24
11 -26 31 -3 25 -7 28 -35 25 -27 -2 -33 -8 -35 -30 -2 -20 -9 -28 -23 -28
-11 0 -19 7 -19 16 0 19 39 263 45 282 7 19 63 15 69 -5z m606 -2 c0 -16 -8
-20 -37 -23 -37 -3 -38 -4 -38 -43 0 -34 3 -40 23 -43 17 -3 22 2 22 17 0 32
33 26 48 -9 10 -23 11 -34 1 -51 -7 -14 -9 -45 -6 -81 5 -56 4 -58 -19 -58
-13 0 -24 5 -24 12 0 9 -3 9 -12 0 -19 -19 -55 -14 -72 10 -20 28 -21 98 -2
123 11 16 11 22 -2 45 -20 35 -9 93 21 108 12 6 39 11 60 11 30 1 37 -3 37
-18z m571 6 c25 -19 33 -72 16 -105 -12 -24 -12 -32 0 -47 7 -11 13 -38 13
-62 0 -60 -25 -83 -90 -83 l-50 0 0 155 0 155 48 0 c26 0 54 -6 63 -13z m389
-7 c0 -17 -7 -20 -40 -20 l-40 0 0 -45 c0 -45 0 -45 35 -45 28 0 35 -4 35 -20
0 -16 -7 -20 -35 -20 l-35 0 0 -50 0 -50 40 0 c33 0 40 -3 40 -20 0 -18 -7
-20 -65 -20 l-65 0 0 148 c0 82 3 152 7 155 3 4 33 7 65 7 51 0 58 -2 58 -20z
m360 1 c0 -16 -8 -20 -37 -23 -37 -3 -38 -4 -41 -45 l-3 -43 35 0 c29 0 36 -4
36 -19 0 -15 -8 -21 -32 -23 -32 -3 -33 -5 -33 -48 0 -44 1 -45 35 -48 34 -4
53 -18 44 -34 -3 -4 -32 -8 -65 -8 l-59 0 0 155 0 155 60 0 c53 0 60 -2 60
-19z m360 -1 c23 -23 28 -98 8 -118 -10 -10 -10 -17 0 -32 6 -11 12 -47 12
-80 0 -52 -2 -60 -19 -60 -16 0 -21 11 -28 63 -7 53 -11 62 -28 62 -18 0 -20
-7 -21 -60 0 -54 -3 -60 -22 -63 -22 -3 -22 -2 -22 152 l0 156 50 0 c37 0 55
-5 70 -20z"/>
<path d="M3502 5568 c-7 -7 -12 -27 -12 -45 0 -49 84 -133 133 -133 63 0 74
40 30 108 -17 26 -44 50 -69 62 -47 23 -65 25 -82 8z"/>
<path d="M4590 5447 c-92 -38 -185 -43 -267 -13 -61 23 -66 22 -268 -56 -71
-28 -141 -54 -154 -59 l-23 -9 28 -38 c69 -93 141 -176 180 -208 l43 -35 106
25 c218 53 406 140 492 228 47 49 63 83 63 137 0 31 -5 40 -25 49 -42 19 -95
13 -175 -21z"/>
<path d="M3230 5415 c-39 -47 63 -155 148 -155 78 0 65 87 -21 144 -46 29
-107 35 -127 11z"/>
<path d="M3620 5237 c-84 -44 71 -186 158 -145 38 19 39 49 2 92 -22 24 -48
41 -83 51 -28 8 -51 15 -51 15 -1 0 -12 -6 -26 -13z"/>
<path d="M6970 6051 c-12 -8 -15 -41 -16 -183 -1 -174 -17 -294 -59 -432 -8
-26 -12 -53 -9 -58 10 -16 93 1 161 32 58 27 131 89 180 155 59 79 76 243 33
325 -42 83 -141 155 -226 165 -27 3 -56 1 -64 -4z"/>
<path d="M2755 4163 c-10 -10 -26 -36 -35 -58 -21 -49 -56 -213 -47 -221 12
-12 67 18 97 52 42 48 58 83 65 140 10 82 -36 131 -80 87z"/>
<path d="M6889 4149 c-34 -34 -57 -98 -73 -208 -9 -58 -14 -106 -12 -108 8 -8
53 10 91 35 60 42 98 111 103 188 3 48 0 70 -12 89 -21 32 -67 34 -97 4z"/>
<path d="M4267 3762 c-22 -24 -37 -98 -39 -195 -3 -101 5 -127 37 -127 35 0
70 44 100 122 29 79 31 105 11 151 -27 65 -75 87 -109 49z"/>
<path d="M5584 3755 c-9 -13 -20 -42 -25 -62 -10 -46 -12 -224 -1 -239 13 -20
40 -23 62 -7 27 19 77 125 86 182 17 104 -74 198 -122 126z"/>
<path d="M7348 3734 c-14 -32 -22 -77 -25 -144 -7 -126 -2 -150 35 -150 48 0
88 58 116 167 15 58 15 64 -3 106 -20 47 -44 67 -81 67 -16 0 -27 -12 -42 -46z"/>
<path d="M3530 3414 c-74 -50 -105 -96 -94 -140 13 -50 107 -18 133 44 14 33
11 104 -4 109 -6 2 -22 -4 -35 -13z"/>
<path d="M6403 3397 c-57 -43 -75 -71 -71 -110 3 -27 7 -32 33 -35 21 -2 40 6
64 26 31 26 35 35 39 90 5 74 -3 77 -65 29z"/>
<path d="M3320 2505 c0 -48 3 -55 19 -55 13 0 21 9 26 29 9 42 -3 81 -26 81
-16 0 -19 -8 -19 -55z"/>
<path d="M4703 2470 c-7 -41 -10 -77 -7 -81 2 -4 13 -5 25 -2 18 5 20 11 14
55 -14 102 -20 107 -32 28z"/>
<path d="M5287 2423 c-4 -3 -7 -26 -7 -50 0 -40 2 -44 23 -41 19 3 22 10 25
51 3 40 1 47 -16 47 -10 0 -22 -3 -25 -7z"/>
<path d="M5860 2516 c0 -30 4 -46 13 -46 26 0 38 18 35 51 -2 26 -8 35 -25 37
-21 3 -23 -1 -23 -42z"/>
<path d="M5860 2380 c0 -41 3 -50 18 -50 24 0 42 19 42 46 0 38 -11 54 -36 54
-22 0 -24 -4 -24 -50z"/>
<path d="M6967 2553 c-4 -3 -7 -26 -7 -50 0 -39 2 -43 24 -43 19 0 26 7 31 29
10 46 -23 90 -48 64z"/>
</g>
</svg>
