<svg width="460" height="162" viewBox="0 0 460 162" fill="none" xmlns="http://www.w3.org/2000/svg">
<path d="M74.3949 101.859C69.3459 101.859 63.1024 101.37 55.6646 100.393V90.7019C64.894 92.1135 71.1918 92.8192 74.5578 92.8192C81.6156 92.8192 85.1445 91.0005 85.1445 87.363V83.9427C85.1445 82.2054 84.6287 80.8753 83.5972 79.9524C82.6199 79.0294 80.8283 78.5679 78.2224 78.5679H72.0333C60.4151 78.5679 54.606 73.9532 54.606 64.7238V60.8149C54.606 56.2002 56.5333 52.807 60.3879 50.6354C64.2425 48.4638 70.3502 47.378 78.711 47.378C83.0543 47.378 88.5648 47.7309 95.2425 48.4366V57.8832C87.0446 56.906 81.3984 56.4174 78.3038 56.4174C74.0149 56.4174 71.1375 56.7702 69.6716 57.476C68.0972 58.2361 67.31 59.4305 67.31 61.0592V64.8053C67.31 67.5741 69.6445 68.9585 74.3135 68.9585H80.6655C86.6917 68.9585 91.0621 70.0715 93.7767 72.2974C96.4912 74.5233 97.8485 77.9165 97.8485 82.4769V85.9786C97.8485 92.2763 95.5954 96.5382 91.0893 98.7641C88.9177 99.9042 86.5017 100.691 83.8415 101.126C81.2355 101.614 78.0867 101.859 74.3949 101.859Z" fill="white"/>
<path d="M106.191 61.6293H117.918V66.434C118.841 62.6879 123.048 60.8149 130.541 60.8149C135.59 60.8149 139.118 61.7378 141.127 63.5837C143.19 65.3753 144.222 68.2256 144.222 72.1345V101.044H132.332V73.6818C132.332 72.1616 132.169 71.0215 131.844 70.2615C131.572 69.5014 130.975 68.9585 130.052 68.6328C129.183 68.307 127.826 68.1441 125.98 68.1441C123.646 68.1441 121.935 68.307 120.85 68.6328C119.764 68.9042 119.031 69.42 118.651 70.18C118.271 70.9401 118.081 72.1074 118.081 73.6818V101.044H106.191V61.6293Z" fill="white"/>
<path d="M165.78 101.859C162.088 101.859 159.319 101.533 157.474 100.881C155.682 100.176 154.406 98.9541 153.646 97.2168C152.94 95.4252 152.587 92.765 152.587 89.2361C152.587 86.0872 152.967 83.617 153.728 81.8254C154.542 80.0338 155.818 78.758 157.555 77.9979C159.347 77.1835 161.79 76.7764 164.884 76.7764H178.24V74.089C178.24 72.406 177.995 71.1573 177.507 70.3429C177.073 69.5286 176.231 68.9585 174.982 68.6328C173.788 68.307 171.969 68.1441 169.526 68.1441C166.16 68.1441 161.545 68.4699 155.682 69.1214V61.6293C159.971 61.0864 164.993 60.8149 170.748 60.8149C175.797 60.8149 179.678 61.1949 182.393 61.955C185.162 62.7151 187.143 64.0181 188.338 65.8639C189.532 67.7098 190.129 70.3972 190.129 73.9261V101.044H178.484V97.4611C177.561 99.0355 176.312 100.148 174.738 100.8C173.164 101.506 170.178 101.859 165.78 101.859ZM170.422 94.448C172.811 94.448 174.521 94.3665 175.552 94.2037C176.312 94.0951 176.828 93.9322 177.1 93.715C177.425 93.4979 177.697 93.145 177.914 92.6564C178.131 92.2763 178.24 91.7063 178.24 90.9462V83.2912H170.096C168.25 83.2912 166.947 83.427 166.187 83.6984C165.427 83.9156 164.911 84.4042 164.64 85.1643C164.369 85.87 164.233 87.1459 164.233 88.9918C164.233 90.7833 164.369 92.032 164.64 92.7378C164.911 93.4436 165.427 93.9051 166.187 94.1222C167.002 94.3394 168.413 94.448 170.422 94.448Z" fill="white"/>
<path d="M200.59 61.6293H211.828V65.5382C212.534 63.8009 213.918 62.5793 215.982 61.8736C218.045 61.1678 221.112 60.8149 225.184 60.8149C228.604 60.8149 231.346 61.0864 233.409 61.6293C235.526 62.1722 237.128 63.0408 238.214 64.2352C239.245 65.4296 239.951 66.7597 240.331 68.2256C240.711 69.6371 240.901 71.5916 240.901 74.089V87.0373C240.901 90.9462 240.331 93.9593 239.191 96.0767C238.051 98.194 236.286 99.687 233.897 100.556C231.563 101.424 228.36 101.859 224.288 101.859C220.379 101.859 217.556 101.533 215.819 100.881C214.081 100.23 212.968 98.9541 212.48 97.0539V117.983H200.59V61.6293ZM220.623 94.448C222.958 94.448 224.722 94.2851 225.917 93.9594C227.111 93.6336 227.925 93.0636 228.36 92.2492C228.794 91.4348 229.011 90.2133 229.011 88.5846V74.0075C229.011 72.2159 228.821 70.9401 228.441 70.18C228.061 69.3657 227.301 68.8228 226.161 68.5513C225.021 68.2799 223.148 68.1441 220.542 68.1441C218.316 68.1441 216.606 68.3342 215.411 68.7142C214.271 69.0942 213.484 69.6914 213.05 70.5058C212.67 71.3201 212.48 72.4874 212.48 74.0075V88.5846C212.48 90.2133 212.67 91.4348 213.05 92.2492C213.484 93.0636 214.271 93.6336 215.411 93.9594C216.552 94.2851 218.289 94.448 220.623 94.448Z" fill="white"/>
<path d="M267.805 101.859C262.756 101.859 256.513 101.37 249.075 100.393V90.7019C258.305 92.1135 264.602 92.8192 267.968 92.8192C275.026 92.8192 278.555 91.0005 278.555 87.363V83.9427C278.555 82.2054 278.039 80.8753 277.008 79.9524C276.03 79.0294 274.239 78.5679 271.633 78.5679H265.444C253.826 78.5679 248.016 73.9532 248.016 64.7238V60.8149C248.016 56.2002 249.944 52.807 253.798 50.6354C257.653 48.4638 263.761 47.378 272.121 47.378C276.465 47.378 281.975 47.7309 288.653 48.4366V57.8832C280.455 56.906 274.809 56.4174 271.714 56.4174C267.425 56.4174 264.548 56.7702 263.082 57.476C261.508 58.2361 260.72 59.4305 260.72 61.0592V64.8053C260.72 67.5741 263.055 68.9585 267.724 68.9585H274.076C280.102 68.9585 284.473 70.0715 287.187 72.2974C289.902 74.5233 291.259 77.9165 291.259 82.4769V85.9786C291.259 92.2763 289.006 96.5382 284.5 98.7641C282.328 99.9042 279.912 100.691 277.252 101.126C274.646 101.614 271.497 101.859 267.805 101.859Z" fill="white"/>
<path d="M318.495 101.859C316.052 101.859 314.043 101.777 312.469 101.614C310.894 101.451 309.211 101.126 307.42 100.637C305.465 100.094 303.891 99.3341 302.696 98.3569C301.502 97.3254 300.497 95.8867 299.683 94.0408C298.869 92.2492 298.462 90.0776 298.462 87.5259V75.8806C298.462 73.2746 298.869 70.9944 299.683 69.0399C300.497 67.0855 301.556 65.5653 302.859 64.4795C303.999 63.5566 305.492 62.7965 307.338 62.1993C309.238 61.5478 311.084 61.1406 312.876 60.9778C314.939 60.8692 316.812 60.8149 318.495 60.8149C320.992 60.8149 322.974 60.8963 324.44 61.0592C325.96 61.1678 327.616 61.4935 329.407 62.0364C331.362 62.6336 332.936 63.448 334.131 64.4795C335.379 65.511 336.438 66.9769 337.307 68.8771C338.121 70.8315 338.528 73.166 338.528 75.8806V87.5259C338.528 89.969 338.121 92.1135 337.307 93.9594C336.546 95.8052 335.542 97.2439 334.293 98.2754C333.208 99.1984 331.715 99.9585 329.814 100.556C327.969 101.099 326.15 101.451 324.358 101.614C322.729 101.777 320.775 101.859 318.495 101.859ZM318.495 94.448C320.721 94.448 322.404 94.2851 323.544 93.9594C324.684 93.5793 325.471 93.0093 325.905 92.2492C326.394 91.4891 326.638 90.3762 326.638 88.9103V74.0075C326.638 71.8359 326.068 70.3158 324.928 69.4471C323.788 68.5785 321.644 68.1441 318.495 68.1441C315.346 68.1441 313.201 68.5785 312.061 69.4471C310.921 70.3158 310.351 71.8359 310.351 74.0075V88.9103C310.351 90.3762 310.568 91.4891 311.003 92.2492C311.491 93.0093 312.306 93.5793 313.446 93.9594C314.586 94.2851 316.269 94.448 318.495 94.448Z" fill="white"/>
<path d="M350.808 68.9585H343.398V61.6293H350.808V55.6844C350.808 52.4813 351.324 49.9839 352.356 48.1923C353.441 46.3464 355.07 45.0706 357.242 44.3648C359.468 43.6048 362.427 43.2247 366.118 43.2247C368.127 43.2247 371.086 43.4419 374.995 43.8762V51.2055C371.52 50.7711 369.186 50.554 367.991 50.554C365.983 50.554 364.598 50.8797 363.838 51.5312C363.078 52.1284 362.698 53.2957 362.698 55.033V61.6293H373.529V68.9585H362.698V101.044H350.808V68.9585Z" fill="white"/>
<path d="M399.075 101.859C397.066 101.859 395.383 101.777 394.026 101.614C392.669 101.451 391.311 101.126 389.954 100.637C388.434 100.148 387.185 99.4699 386.208 98.6012C385.285 97.7326 384.525 96.5382 383.928 95.018C383.276 93.4436 382.951 91.6248 382.951 89.5618V68.9585H373.529V61.6293H382.951V50.2282H394.84V61.6293H405.671V68.9585H394.84V87.5259C394.84 89.4261 395.003 90.8648 395.329 91.842C395.655 92.765 396.279 93.4436 397.202 93.8779C398.125 94.2579 399.537 94.448 401.437 94.448C402.197 94.448 403.608 94.3122 405.671 94.0408V101.451C403.12 101.723 400.921 101.859 399.075 101.859Z" fill="white"/>
<rect x="55.3135" y="110.626" width="134.803" height="8.05885" fill="white"/>
<rect x="223.118" y="110.739" width="183.231" height="7.75581" fill="white"/>
</svg>
