<?xml version="1.0" standalone="no"?>
<!DOCTYPE svg PUBLIC "-//W3C//DTD SVG 20010904//EN"
 "http://www.w3.org/TR/2001/REC-SVG-20010904/DTD/svg10.dtd">
<svg version="1.0" xmlns="http://www.w3.org/2000/svg"
 width="700.000000pt" height="700.000000pt" viewBox="0 0 700.000000 700.000000"
 preserveAspectRatio="xMidYMid meet">
<metadata>
Created by potrace 1.14, written by Peter Selinger 2001-2017
</metadata>
<g transform="translate(0.000000,700.000000) scale(0.100000,-0.100000)"
fill="#000000" stroke="none">
<path d="M5108 6995 c-5 -4 -297 -14 -598 -20 -518 -11 -550 -13 -671 -51
-194 -61 -280 -176 -265 -352 4 -41 8 -78 11 -81 2 -4 6 -33 9 -66 4 -33 9
-67 11 -75 2 -8 6 -33 9 -55 5 -34 14 -100 30 -210 9 -57 28 -183 32 -205 2
-14 6 -45 10 -70 3 -25 7 -52 9 -60 2 -8 7 -37 10 -65 3 -27 8 -59 10 -71 3
-12 7 -39 10 -60 9 -56 12 -76 19 -104 3 -14 8 -36 10 -50 2 -14 7 -36 10 -50
47 -200 128 -564 140 -630 8 -47 17 -96 20 -110 2 -14 7 -50 10 -80 11 -100
62 -240 109 -301 36 -47 111 -60 217 -39 30 6 66 14 80 16 72 14 315 78 385
101 107 35 233 93 272 127 43 37 57 84 49 170 -3 39 -8 82 -11 96 -14 77 -48
368 -51 442 -4 93 -1 101 46 103 50 3 201 17 232 21 18 2 68 6 113 9 l81 6 28
-123 c15 -68 31 -134 35 -148 10 -33 9 -53 -15 -220 -3 -19 -7 -42 -9 -50 -2
-8 -7 -30 -10 -47 -13 -80 -17 -102 -31 -168 -32 -145 -84 -309 -137 -430 -16
-38 -52 -149 -79 -245 -27 -96 -67 -240 -90 -320 -22 -80 -51 -185 -65 -235
-13 -49 -60 -218 -104 -375 -44 -157 -105 -373 -134 -480 -30 -107 -74 -266
-98 -352 -45 -161 -61 -197 -100 -222 -12 -8 -74 -26 -137 -40 -260 -56 -347
-100 -370 -185 -10 -38 -9 -46 15 -171 14 -71 18 -135 30 -520 6 -208 15 -328
40 -535 18 -146 53 -342 66 -366 5 -11 21 -26 34 -35 22 -15 50 -16 243 -8
119 4 366 6 547 5 777 -8 797 -8 835 12 58 29 75 62 73 137 -1 36 -4 202 -7
370 -3 168 -7 357 -11 420 -8 172 -15 289 -20 345 -2 28 -7 84 -11 125 -12
154 -66 266 -159 330 -25 17 -85 46 -133 64 l-87 32 2 55 c1 31 27 147 63 274
33 121 63 227 65 235 12 50 25 110 30 140 3 19 10 49 14 65 5 17 12 46 15 65
3 19 8 44 10 55 32 147 48 224 52 245 3 14 7 33 10 42 3 10 7 30 10 45 3 16 7
36 10 45 3 9 6 25 8 35 65 324 157 628 330 1093 49 129 117 314 153 410 74
201 137 338 218 476 67 114 112 166 163 189 20 9 49 22 64 29 93 42 125 194
125 586 0 113 -3 232 -8 265 -29 220 -31 277 -13 355 29 125 10 295 -37 339
-28 26 -202 56 -389 66 -58 4 -132 8 -165 10 -33 2 -118 7 -190 11 -71 3 -157
8 -190 10 -75 5 -833 13 -837 9z"/>
<path d="M2650 6519 c-47 -10 -107 -21 -135 -25 -27 -3 -53 -8 -56 -10 -31
-18 -284 -20 -1429 -14 -212 1 -403 -1 -425 -4 -191 -31 -243 -59 -296 -160
-18 -34 -22 -61 -25 -180 -8 -388 -15 -637 -19 -696 -2 -36 -6 -144 -10 -240
-3 -96 -8 -211 -10 -255 -2 -44 -7 -138 -10 -210 -8 -185 -14 -326 -20 -435
-3 -52 -8 -138 -10 -190 -3 -52 -7 -133 -10 -180 -3 -47 -7 -128 -10 -180 -6
-131 -15 -294 -20 -360 -2 -30 -7 -109 -10 -175 -4 -66 -8 -149 -10 -185 -2
-36 -7 -112 -10 -170 -4 -58 -8 -121 -10 -140 -2 -19 -7 -89 -10 -155 -4 -66
-9 -127 -10 -136 -2 -8 -6 -78 -10 -155 -4 -76 -9 -152 -11 -169 -25 -206 -25
-1150 1 -1375 2 -19 6 -75 10 -125 3 -49 8 -101 10 -115 2 -14 6 -47 10 -75
12 -84 20 -126 47 -244 15 -69 28 -102 49 -125 l27 -31 334 0 c311 0 607 9
653 18 11 3 45 8 75 12 30 4 63 9 74 11 43 8 164 18 211 17 28 -1 284 -3 570
-6 495 -4 524 -5 600 -26 190 -52 237 -24 280 164 18 78 20 106 40 645 14 379
23 580 30 660 16 183 24 1096 10 1140 -9 29 -49 66 -79 73 -12 3 -39 10 -61
16 -22 6 -60 14 -85 17 -25 3 -56 7 -70 9 -14 2 -54 6 -90 10 -36 4 -76 8 -89
10 -22 4 -104 8 -376 20 -55 3 -222 7 -371 11 -232 5 -272 4 -282 -9 -12 -14
-51 -209 -67 -332 -3 -27 -8 -59 -10 -70 -3 -11 -7 -47 -10 -80 -3 -33 -8 -80
-11 -105 -9 -89 -12 -330 -4 -367 11 -48 50 -81 132 -112 173 -65 193 -84 184
-176 -6 -75 -14 -78 -191 -71 -148 6 -203 11 -210 18 -7 7 -7 134 1 368 10
304 10 831 -1 1390 -10 582 -7 928 11 1140 2 25 6 115 9 200 3 85 8 178 10
205 5 53 36 180 48 191 7 7 109 -10 165 -27 17 -6 37 -20 44 -32 8 -15 12
-108 13 -292 2 -287 5 -316 34 -374 37 -71 96 -100 201 -96 71 3 255 13 335
20 28 2 88 7 135 10 186 13 302 28 438 56 107 22 148 40 158 71 7 21 6 144 -1
298 -4 80 -15 378 -30 815 -3 83 -8 200 -10 260 -3 61 -7 187 -10 280 -3 94
-7 177 -10 185 -2 8 -7 35 -10 60 -10 70 -64 222 -89 251 -48 56 -94 64 -216
38z"/>
</g>
</svg>
